<mxfile host="app.diagrams.net" modified="2023-05-12T12:56:23.770Z" agent="Mozilla/5.0 (Windows NT 10.0; Win64; x64) AppleWebKit/537.36 (KHTML, like Gecko) Chrome/113.0.0.0 Safari/537.36 Edg/113.0.1774.35" etag="_8r26IrsfqTJY9Fc0wwF" version="21.2.9" type="github">
  <diagram name="第 1 页" id="FB-VJ0X_YI4oi67NOfW7">
    <mxGraphModel dx="1002" dy="573" grid="1" gridSize="10" guides="1" tooltips="1" connect="1" arrows="1" fold="1" page="1" pageScale="1" pageWidth="827" pageHeight="1169" math="0" shadow="0">
      <root>
        <mxCell id="0" />
        <mxCell id="1" parent="0" />
        <mxCell id="UctJYWVTju1ZOWu62RVD-16" style="edgeStyle=orthogonalEdgeStyle;rounded=0;orthogonalLoop=1;jettySize=auto;html=1;exitX=0.25;exitY=1;exitDx=0;exitDy=0;entryX=0.426;entryY=-0.001;entryDx=0;entryDy=0;entryPerimeter=0;" edge="1" parent="1" source="UctJYWVTju1ZOWu62RVD-1" target="UctJYWVTju1ZOWu62RVD-2">
          <mxGeometry relative="1" as="geometry" />
        </mxCell>
        <mxCell id="UctJYWVTju1ZOWu62RVD-17" style="edgeStyle=orthogonalEdgeStyle;rounded=0;orthogonalLoop=1;jettySize=auto;html=1;exitX=0.5;exitY=1;exitDx=0;exitDy=0;entryX=0.5;entryY=0;entryDx=0;entryDy=0;" edge="1" parent="1" source="UctJYWVTju1ZOWu62RVD-1" target="UctJYWVTju1ZOWu62RVD-2">
          <mxGeometry relative="1" as="geometry" />
        </mxCell>
        <mxCell id="UctJYWVTju1ZOWu62RVD-18" style="edgeStyle=orthogonalEdgeStyle;rounded=0;orthogonalLoop=1;jettySize=auto;html=1;exitX=0.75;exitY=1;exitDx=0;exitDy=0;entryX=0.574;entryY=0.001;entryDx=0;entryDy=0;entryPerimeter=0;" edge="1" parent="1" source="UctJYWVTju1ZOWu62RVD-1" target="UctJYWVTju1ZOWu62RVD-2">
          <mxGeometry relative="1" as="geometry" />
        </mxCell>
        <mxCell id="UctJYWVTju1ZOWu62RVD-1" value="&lt;font style=&quot;font-size: 15px;&quot; face=&quot;宋体&quot;&gt;客户端&lt;/font&gt;" style="rounded=1;whiteSpace=wrap;html=1;shadow=0;glass=0;fillColor=none;strokeColor=#000000;" vertex="1" parent="1">
          <mxGeometry x="312.5" y="30" width="120" height="60" as="geometry" />
        </mxCell>
        <mxCell id="UctJYWVTju1ZOWu62RVD-24" style="edgeStyle=orthogonalEdgeStyle;rounded=0;orthogonalLoop=1;jettySize=auto;html=1;exitX=0.25;exitY=1;exitDx=0;exitDy=0;entryX=0.25;entryY=0;entryDx=0;entryDy=0;" edge="1" parent="1" source="UctJYWVTju1ZOWu62RVD-2" target="UctJYWVTju1ZOWu62RVD-11">
          <mxGeometry relative="1" as="geometry" />
        </mxCell>
        <mxCell id="UctJYWVTju1ZOWu62RVD-25" style="edgeStyle=orthogonalEdgeStyle;rounded=0;orthogonalLoop=1;jettySize=auto;html=1;exitX=0.5;exitY=1;exitDx=0;exitDy=0;entryX=0.5;entryY=0;entryDx=0;entryDy=0;" edge="1" parent="1" source="UctJYWVTju1ZOWu62RVD-2" target="UctJYWVTju1ZOWu62RVD-11">
          <mxGeometry relative="1" as="geometry" />
        </mxCell>
        <mxCell id="UctJYWVTju1ZOWu62RVD-27" style="edgeStyle=orthogonalEdgeStyle;rounded=0;orthogonalLoop=1;jettySize=auto;html=1;exitX=0.75;exitY=1;exitDx=0;exitDy=0;entryX=0.75;entryY=0;entryDx=0;entryDy=0;" edge="1" parent="1" source="UctJYWVTju1ZOWu62RVD-2" target="UctJYWVTju1ZOWu62RVD-11">
          <mxGeometry relative="1" as="geometry" />
        </mxCell>
        <mxCell id="UctJYWVTju1ZOWu62RVD-2" value="" style="rounded=1;whiteSpace=wrap;html=1;fillColor=none;" vertex="1" parent="1">
          <mxGeometry x="145" y="120" width="455" height="350" as="geometry" />
        </mxCell>
        <mxCell id="UctJYWVTju1ZOWu62RVD-3" value="&lt;font style=&quot;font-size: 21px;&quot; face=&quot;宋体&quot;&gt;服务层&lt;/font&gt;" style="rounded=1;whiteSpace=wrap;html=1;fillColor=none;strokeColor=none;" vertex="1" parent="1">
          <mxGeometry x="170" y="320" width="200" height="90" as="geometry" />
        </mxCell>
        <mxCell id="UctJYWVTju1ZOWu62RVD-19" style="rounded=0;orthogonalLoop=1;jettySize=auto;html=1;exitX=0;exitY=1;exitDx=0;exitDy=0;entryX=0.75;entryY=0;entryDx=0;entryDy=0;" edge="1" parent="1" source="UctJYWVTju1ZOWu62RVD-4" target="UctJYWVTju1ZOWu62RVD-6">
          <mxGeometry relative="1" as="geometry" />
        </mxCell>
        <mxCell id="UctJYWVTju1ZOWu62RVD-20" style="rounded=0;orthogonalLoop=1;jettySize=auto;html=1;exitX=1;exitY=1;exitDx=0;exitDy=0;entryX=0.25;entryY=0;entryDx=0;entryDy=0;" edge="1" parent="1" source="UctJYWVTju1ZOWu62RVD-4" target="UctJYWVTju1ZOWu62RVD-8">
          <mxGeometry relative="1" as="geometry" />
        </mxCell>
        <mxCell id="UctJYWVTju1ZOWu62RVD-4" value="&lt;font style=&quot;font-size: 14px;&quot; face=&quot;宋体&quot;&gt;连接器&lt;/font&gt;" style="rounded=1;whiteSpace=wrap;html=1;fillColor=none;" vertex="1" parent="1">
          <mxGeometry x="317.5" y="150" width="110" height="40" as="geometry" />
        </mxCell>
        <mxCell id="UctJYWVTju1ZOWu62RVD-6" value="&lt;font style=&quot;font-size: 14px;&quot; face=&quot;宋体&quot;&gt;查询缓存&lt;/font&gt;" style="rounded=1;whiteSpace=wrap;html=1;fillColor=none;" vertex="1" parent="1">
          <mxGeometry x="180" y="230" width="110" height="40" as="geometry" />
        </mxCell>
        <mxCell id="UctJYWVTju1ZOWu62RVD-21" style="edgeStyle=orthogonalEdgeStyle;rounded=0;orthogonalLoop=1;jettySize=auto;html=1;exitX=0;exitY=0.5;exitDx=0;exitDy=0;entryX=1;entryY=0.5;entryDx=0;entryDy=0;" edge="1" parent="1" source="UctJYWVTju1ZOWu62RVD-8" target="UctJYWVTju1ZOWu62RVD-6">
          <mxGeometry relative="1" as="geometry" />
        </mxCell>
        <mxCell id="UctJYWVTju1ZOWu62RVD-22" style="edgeStyle=orthogonalEdgeStyle;rounded=0;orthogonalLoop=1;jettySize=auto;html=1;exitX=0.5;exitY=1;exitDx=0;exitDy=0;" edge="1" parent="1" source="UctJYWVTju1ZOWu62RVD-8" target="UctJYWVTju1ZOWu62RVD-9">
          <mxGeometry relative="1" as="geometry" />
        </mxCell>
        <mxCell id="UctJYWVTju1ZOWu62RVD-8" value="&lt;font style=&quot;font-size: 14px;&quot; face=&quot;宋体&quot;&gt;分析器&lt;/font&gt;" style="rounded=1;whiteSpace=wrap;html=1;fillColor=none;" vertex="1" parent="1">
          <mxGeometry x="440" y="230" width="110" height="40" as="geometry" />
        </mxCell>
        <mxCell id="UctJYWVTju1ZOWu62RVD-23" style="edgeStyle=orthogonalEdgeStyle;rounded=0;orthogonalLoop=1;jettySize=auto;html=1;exitX=0.5;exitY=1;exitDx=0;exitDy=0;entryX=0.5;entryY=0;entryDx=0;entryDy=0;" edge="1" parent="1" source="UctJYWVTju1ZOWu62RVD-9" target="UctJYWVTju1ZOWu62RVD-10">
          <mxGeometry relative="1" as="geometry" />
        </mxCell>
        <mxCell id="UctJYWVTju1ZOWu62RVD-9" value="&lt;font style=&quot;font-size: 14px;&quot; face=&quot;宋体&quot;&gt;优化器&lt;/font&gt;" style="rounded=1;whiteSpace=wrap;html=1;fillColor=none;" vertex="1" parent="1">
          <mxGeometry x="440" y="320" width="110" height="40" as="geometry" />
        </mxCell>
        <mxCell id="UctJYWVTju1ZOWu62RVD-10" value="&lt;font style=&quot;font-size: 14px;&quot; face=&quot;宋体&quot;&gt;执行器&lt;/font&gt;" style="rounded=1;whiteSpace=wrap;html=1;fillColor=none;" vertex="1" parent="1">
          <mxGeometry x="440" y="410" width="110" height="40" as="geometry" />
        </mxCell>
        <mxCell id="UctJYWVTju1ZOWu62RVD-11" value="" style="rounded=1;whiteSpace=wrap;html=1;shadow=0;glass=0;fillColor=none;strokeColor=#000000;" vertex="1" parent="1">
          <mxGeometry x="145" y="510" width="455" height="80" as="geometry" />
        </mxCell>
        <mxCell id="UctJYWVTju1ZOWu62RVD-13" value="存储引擎" style="rounded=1;whiteSpace=wrap;html=1;fillColor=none;" vertex="1" parent="1">
          <mxGeometry x="200" y="525" width="90" height="50" as="geometry" />
        </mxCell>
        <mxCell id="UctJYWVTju1ZOWu62RVD-14" value="存储引擎" style="rounded=1;whiteSpace=wrap;html=1;fillColor=none;" vertex="1" parent="1">
          <mxGeometry x="340" y="525" width="90" height="50" as="geometry" />
        </mxCell>
        <mxCell id="UctJYWVTju1ZOWu62RVD-15" value="存储引擎" style="rounded=1;whiteSpace=wrap;html=1;fillColor=none;" vertex="1" parent="1">
          <mxGeometry x="480" y="525" width="90" height="50" as="geometry" />
        </mxCell>
      </root>
    </mxGraphModel>
  </diagram>
</mxfile>
